<?xml version="1.0" standalone="no"?>
<!DOCTYPE svg PUBLIC "-//W3C//DTD SVG 20010904//EN"
 "http://www.w3.org/TR/2001/REC-SVG-20010904/DTD/svg10.dtd">
<svg version="1.0" xmlns="http://www.w3.org/2000/svg"
 width="700.000000pt" height="700.000000pt" viewBox="0 0 700.000000 700.000000"
 preserveAspectRatio="xMidYMid meet">
<metadata>
Created by potrace 1.11, written by Peter Selinger 2001-2013
</metadata>
<g transform="translate(0.000000,700.000000) scale(0.100000,-0.100000)"
fill="#000000" stroke="none">
<path d="M3528 6764 c-2 -1 -41 -5 -88 -9 -47 -3 -96 -8 -110 -10 -14 -2 -45
-6 -70 -10 -201 -29 -414 -82 -527 -131 -17 -8 -34 -14 -37 -14 -16 0 -169
-79 -231 -119 -38 -25 -102 -77 -141 -116 -63 -62 -74 -79 -94 -140 -32 -100
-36 -260 -9 -356 33 -121 88 -214 180 -310 174 -180 461 -375 808 -549 68 -34
136 -66 150 -71 24 -9 23 -7 -9 23 -172 162 -164 296 21 358 42 14 79 17 169
14 63 -2 126 -6 140 -9 14 -3 41 -8 60 -10 66 -10 185 -37 315 -72 71 -19 136
-36 145 -38 58 -12 661 -212 689 -229 14 -9 29 16 130 209 23 44 46 87 51 95
5 8 55 101 111 205 56 105 119 223 140 263 22 39 56 105 78 145 21 39 53 99
71 132 99 183 130 244 130 251 0 13 -177 96 -365 171 -278 112 -566 201 -820
253 -112 23 -117 24 -230 40 -113 16 -132 19 -205 26 -65 6 -447 13 -452 8z"/>
<path d="M2095 6457 c-264 -121 -481 -293 -641 -507 -132 -177 -261 -481 -280
-659 -2 -25 -6 -55 -9 -66 -5 -24 -18 -207 -19 -255 0 -49 34 -271 50 -322 3
-9 7 -25 9 -36 6 -31 41 -142 68 -212 122 -322 327 -582 642 -814 85 -63 380
-256 391 -256 4 0 15 -6 23 -14 59 -50 649 -319 1091 -496 150 -61 291 -125
480 -220 145 -72 165 -83 310 -168 392 -230 691 -507 804 -746 65 -136 80
-201 79 -336 -1 -188 -80 -366 -233 -522 -77 -78 -58 -72 90 30 333 228 614
598 778 1024 93 242 130 435 126 658 -2 136 -5 167 -40 337 -10 49 -68 203
-105 279 -170 348 -504 665 -964 914 -81 44 -313 160 -320 160 -4 0 -25 9 -48
19 -23 10 -60 26 -82 36 -57 23 -464 175 -471 175 -3 0 -20 6 -37 14 -18 8
-108 44 -202 81 -93 37 -188 75 -210 85 -22 10 -74 32 -115 50 -124 53 -438
209 -550 273 -130 75 -304 186 -308 198 -2 5 -8 9 -14 9 -19 0 -184 135 -274
225 -148 148 -228 273 -264 416 -18 69 -22 211 -8 235 4 6 9 22 12 37 6 34 32
90 75 157 38 62 176 202 221 225 29 15 38 25 23 25 -5 0 -40 -15 -78 -33z"/>
<path d="M2003 2382 c-5 -10 -32 -57 -58 -107 -26 -49 -64 -119 -83 -155 -19
-36 -53 -99 -74 -140 -22 -41 -62 -115 -89 -165 -69 -130 -150 -286 -293 -567
l-126 -247 82 -40 c434 -208 1077 -418 1483 -485 99 -17 245 -35 335 -42 70
-5 381 -5 420 0 19 3 79 10 134 16 54 7 108 14 120 16 11 2 46 8 76 14 82 15
89 17 175 40 88 24 266 94 305 119 14 9 38 23 53 31 46 23 154 117 198 172
173 219 175 524 7 847 -131 252 -419 491 -758 631 l-75 31 58 -58 c94 -93 120
-169 84 -240 -46 -88 -219 -171 -347 -167 -103 3 -262 32 -420 75 -210 58
-730 237 -867 300 -23 10 -44 19 -47 19 -3 0 -36 14 -73 31 -59 27 -112 49
-189 79 -14 6 -23 3 -31 -8z"/>
</g>
</svg>
